<svg xmlns="http://www.w3.org/2000/svg" viewBox="0 0 294.37 220.72"><defs><style>.cls-1{fill:#7fcdec;}.cls-2{fill:#211613;}.cls-3{fill:#1f2874;}.cls-4{fill:#231916;}.cls-11,.cls-5{fill:#fff;}.cls-5{stroke:#fff;stroke-miterlimit:10;stroke-width:4px;}.cls-6{fill:#007433;}.cls-7{fill:#609055;}.cls-8{fill:#97ac26;}.cls-9{fill:#7a8d2f;}.cls-10{fill:#b3c256;}</style></defs><g id="Layer_2" data-name="Layer 2"><g id="レイヤー_2" data-name="レイヤー 2"><path class="cls-1" d="M197,199.2s15-9,48.5-4.42c12.37,1.64,33.46,2.4,41.17-.76-12.63,4.55-19.07,7.07-43.32,4.93C233.75,197.93,207.86,194.9,197,199.2Z"/><path class="cls-2" d="M123.49,160.59a2.9,2.9,0,0,0-3.33-2.58l-10,1.55v-5.64a1.39,1.39,0,0,0-1.4-1.37h-94a1.39,1.39,0,0,0-1.4,1.37v5.64L3.35,158A2.9,2.9,0,0,0,0,160.59v.07c-.15,1.65,1.1,2.35,2.79,2.42l10.53,1.25h.41l7.69,36a1.79,1.79,0,0,0,1.68,1.34H100.4a1.79,1.79,0,0,0,1.68-1.34l7.69-36h.41l10.53-1.25c1.69-.07,2.94-.77,2.79-2.42Z"/><path class="cls-3" d="M146.17,203.52a45.62,45.62,0,0,0,1.48-9.12l1.5-.42a26.07,26.07,0,0,0,9,7.78,21.75,21.75,0,0,0,11.74,2.52,18.26,18.26,0,0,0,12.52-5.8q5-5.31,4.42-13.65a16.57,16.57,0,0,0-3.84-9.78q-3.41-4.23-16.3-8-13.29-3.74-17.74-9.55a25.53,25.53,0,0,1-5-14A23.4,23.4,0,0,1,149.92,126q6.54-7.64,19.13-8.47,11.77-.8,19.92,5-1.62,5.33-2.64,9.91l-1.38.27q-4-6.13-8.48-7.94a18.35,18.35,0,0,0-8.31-1.54,16.2,16.2,0,0,0-10.49,4.65q-4.35,4.17-3.88,11.26c.32,4.81,2.12,8.49,5.38,11.07s8.59,4.81,15.84,6.7q11.27,3,16.08,8.45t5.45,13.87q.75,11.26-7.26,20.64t-21.94,10.25a33.6,33.6,0,0,1-10.81-.92A28.45,28.45,0,0,1,146.17,203.52Z"/><path class="cls-4" d="M240.6,122.59a35.75,35.75,0,0,1-4.26,4.46l-1.66,10.71-2.05-.32L234,129a35.12,35.12,0,0,1-4.42,2.8l-1.2-1.68a34,34,0,0,0,6-4,31.67,31.67,0,0,0,4.83-5.28Z"/><path class="cls-4" d="M223,118.07a24.19,24.19,0,0,1-1,5.15l-2.16-.43a20.81,20.81,0,0,0,.73-3.28L216,122l.86,3.83a2.61,2.61,0,0,0,.6,1.39,1.51,1.51,0,0,0,1.22.07l4.82-1.09.27,2.32-4.8,1.08a4.37,4.37,0,0,1-3,0c-.53-.34-1-1.26-1.3-2.77l-.84-3.72-4.06,2.26-1.38-1.76,4.94-2.74L212,114.74l2.29-.51,1.25,5.54,6-3Z"/><path class="cls-3" d="M216.34,150.22a10.3,10.3,0,0,1,8.13-3.89,8.85,8.85,0,0,1,8,4.24,16.75,16.75,0,0,1,2.69,9.11q0,.52-.09,2.16H212.41Q213,154.12,216.34,150.22Zm13.75,15.47a111.66,111.66,0,0,1,13.12.7c.06-1.79.09-3,.09-3.49q0-9.06-4.69-14.45T225.14,143q-10.08,0-15.51,6.27t-5.4,16.53q0,10.38,5.75,16.26t15.38,5.83a28.83,28.83,0,0,0,7.6-1,27.36,27.36,0,0,0,8-4,37.67,37.67,0,0,1,1.1-4.59l-.75-1q-3.89,4.46-7.2,5.83a17.72,17.72,0,0,1-6.8,1.37q-7.38,0-11.18-4.68t-3.76-14.23Z"/><polyline class="cls-3" points="249.49 122.72 238.63 139.91 238.28 139.69 249.14 122.5"/><polyline class="cls-3" points="200.94 116.29 208.59 132.98 208.2 133.15 200.56 116.46"/><rect class="cls-3" x="162.33" y="3.42" width="14.07" height="2.09"/><path class="cls-3" d="M55.29,23.13a12.25,12.25,0,0,0,2.82-2.33l.09-.09-1.72-1.47-.08.11A7.66,7.66,0,0,1,53.32,22a13.11,13.11,0,0,1-3.59-3.17H56.6V9.39H40.86V24.46L37.78,25l.89,1.9,10.69-2,.1,0v-2L43,24V18.8h4.05a17.31,17.31,0,0,0,5.65,5.42,23.58,23.58,0,0,0,8.43,2.66h.07L62.67,25h-.24A19.55,19.55,0,0,1,55.29,23.13Zm-.87-8v1.62H43V15.14ZM43,13.13v-1.7H54.42v1.7Z"/><path class="cls-3" d="M101.41,2.44l-.13,0,0,.14a67.54,67.54,0,0,0-1.12,11.67A55.41,55.41,0,0,0,101,23.7l0,.09h.09a9,9,0,0,0,1.48.12h.59l0-.14a57.3,57.3,0,0,1-.85-9.48,55.59,55.59,0,0,1,1.18-11l0-.1-.1,0A16.78,16.78,0,0,0,101.41,2.44Z"/><path class="cls-3" d="M49.84,1.47c.13-.27.21-.44.24-.52l.05-.11-2-.84L48.1.1c-2.22,3.79-6.66,6.83-13.2,9l-.16.06,1.43,1.91.09,0a36.91,36.91,0,0,0,9.12-4.76V8.15h6.7V6.32a31.39,31.39,0,0,0,9,4.75l.08,0,1.5-1.91-.18,0A26.26,26.26,0,0,1,49.84,1.47ZM45.62,6.12a17.09,17.09,0,0,0,3.06-3,24.15,24.15,0,0,0,3.14,3Z"/><path class="cls-3" d="M80.11,17.27h8.71V6.63H79.88V4.35H91.05V2.29H79.88V.06H77.73v6.6h-8.2V17.29H78v2.29H65.38v2H78v5.27h2.15V21.61H92.49v-2H80.11Zm-8.43-6.35V8.72h15v2.2Zm0,4.31V13h15v2.28Z"/><path class="cls-3" d="M119.49,9.22l.08,0,.12-2.13-.18.07a15.6,15.6,0,0,1-4.15.82V2.43l-.1,0a6.31,6.31,0,0,0-2-.12h-.11V8c-3.26.1-5.56.1-6.84,0h-.17l.4,2.06h.1a54.93,54.93,0,0,0,6.51-.06v7a7.92,7.92,0,0,0-2.52-.47A5.24,5.24,0,0,0,107,17.72a3.66,3.66,0,0,0-1.25,2.82,3.49,3.49,0,0,0,1.28,2.87,5.62,5.62,0,0,0,3.59,1c3,0,4.57-1.43,4.7-4.25a23.91,23.91,0,0,1,3.48,2.51l.16.15,0-.22a9.38,9.38,0,0,1,.51-1.77l0-.09-.07-.05a24.21,24.21,0,0,0-4.15-2.78V10A18.66,18.66,0,0,0,119.49,9.22Zm-6.31,9.86a4.74,4.74,0,0,1-.49,2.55h0a2.8,2.8,0,0,1-2.31.74,2.77,2.77,0,0,1-1.72-.52,1.55,1.55,0,0,1-.69-1.31,1.68,1.68,0,0,1,.58-1.29,3,3,0,0,1,2.11-.67A6.13,6.13,0,0,1,113.18,19.08Z"/><path class="cls-3" d="M160,10.73h8.6a20.74,20.74,0,0,1-1.21,8,14.28,14.28,0,0,1-4.6,5.18l-.13.09,1.61,1.35.08-.06a16.23,16.23,0,0,0,4.93-5.6,21.82,21.82,0,0,0,1.5-8.94h7.94V8.65H160Z"/><path class="cls-3" d="M142.35,14.86a23.83,23.83,0,0,0,3.79-9.12V5.67l-1.82-1.79H132.16V5.94h11.68a22,22,0,0,1-4.78,9.6,28.37,28.37,0,0,1-9.46,6.83l-.15.07,1.38,1.62.09,0A32.47,32.47,0,0,0,141,16.53a26.6,26.6,0,0,1,6,5.69l.09.12,1.54-1.69-.07-.08A29.5,29.5,0,0,0,142.35,14.86Z"/><path class="cls-3" d="M241.77,5.12A10.48,10.48,0,0,0,237.63.89l-.09-.05-1.23,1.43.14.08a9.54,9.54,0,0,1,3.88,4l.08.15,1.41-1.31Z"/><path class="cls-3" d="M228.33,6.94l.08.13,1.49-1.4-.06-.09A16.13,16.13,0,0,0,224.76,1L224.67,1l-1.23,1.43.13.07A13.77,13.77,0,0,1,228.33,6.94Z"/><path class="cls-3" d="M225.85,14.46l.09.11,1.38-1.36-.06-.09a15.2,15.2,0,0,0-6.1-5l-.1,0-1.21,1.71.14.06A15,15,0,0,1,225.85,14.46Z"/><path class="cls-3" d="M235.44,2.73l-.09,0-1.23,1.43.14.08a9.5,9.5,0,0,1,3.86,4l.08.15,1.43-1.31,0-.09A10.54,10.54,0,0,0,235.44,2.73Z"/><path class="cls-3" d="M237.55,10.68a24.23,24.23,0,0,1-6.29,7,29.3,29.3,0,0,1-8.75,4.65l-.17.06,1.58,2.05.09,0a29.75,29.75,0,0,0,8.91-5.21,27.5,27.5,0,0,0,6-7l0-.08-1.31-1.54Z"/><path class="cls-3" d="M118.14,40l.08.24,1.61-.89,0-.16a6.5,6.5,0,0,0-2.54-3.57l-.12-.08-1.53,1,.24.17A6.58,6.58,0,0,1,118.14,40Z"/><path class="cls-3" d="M111.8,41.64V39.52l-.29.11a21.68,21.68,0,0,1-3.54.94c.14-1.58.23-3.54.26-5.81v-.21h-2.17v.21a60.23,60.23,0,0,1-.27,6.08,19.44,19.44,0,0,1-3.37.27h-.25l0,.25a6.73,6.73,0,0,1,0,1.69l0,.23h.24a27.61,27.61,0,0,0,3.26-.32,68.2,68.2,0,0,1-2,13.92l-.06.21.22,0a11.1,11.1,0,0,1,1.62.49l.22.08.06-.23a76.38,76.38,0,0,0,2.12-14.86,23.1,23.1,0,0,0,3.75-.93Z"/><path class="cls-3" d="M86.59,52.8a14.9,14.9,0,0,1-4.78-.53h0a1.54,1.54,0,0,1-1.14-1.51,6.07,6.07,0,0,1,1.08-3.31l.15-.23-2.14-.64-.08.13a7.39,7.39,0,0,0-1.15,4,3.19,3.19,0,0,0,1.65,3.06c1.17.62,3.27.93,6.41.93a16.27,16.27,0,0,0,7.57-1.64l.11-.06V50.93l-.3.15A15.86,15.86,0,0,1,86.59,52.8Z"/><path class="cls-3" d="M111.84,44.84l.24-.05c.89-.19,2.24-.43,4-.72a12,12,0,0,1,3.8,0l.22.05.28-2.07-.2,0a14.06,14.06,0,0,0-2.14-.14,26.75,26.75,0,0,0-6.18.8l-.18,0Z"/><path class="cls-3" d="M88.51,38.36c1.22,0,2.43,0,3.58.14l.23,0v-2l-.19,0q-1.34-.12-2.88-.12a57.62,57.62,0,0,0-8.77.74l-.18,0v2l.25,0A41.08,41.08,0,0,1,88.51,38.36Z"/><path class="cls-3" d="M120.61,53.57a7.73,7.73,0,0,1-4.25,1.11,5.39,5.39,0,0,1-3.08-.73,3.85,3.85,0,0,1-1.48-2.23l-.06-.2-2.22.65.09.22a7.12,7.12,0,0,0,2.16,3.15,9.26,9.26,0,0,0,5.13,1.1,7.65,7.65,0,0,0,4.32-1.08l.12-.08-.48-2.07Z"/><path class="cls-3" d="M119.65,34.54l-.11-.08-1.54,1,.24.18a6.52,6.52,0,0,1,2.31,3.27l.08.23,1.61-.88,0-.16A6.52,6.52,0,0,0,119.65,34.54Z"/><path class="cls-3" d="M168.43,36.21c-2.75,0-4.9,2.69-6.41,8,0-1.19,0-2.14,0-2.85a27.82,27.82,0,0,1,.58-5.15l0-.2-2.15-.51,0,.22a31.77,31.77,0,0,0-.61,6.16,44.23,44.23,0,0,0,.82,7.94l0,.2,2.25-.31,0-.15c1.34-7.46,3.12-11.25,5.3-11.25.61,0,1.13.58,1.56,1.73a15.76,15.76,0,0,1,.75,5.4A12.78,12.78,0,0,1,169,52.26a14.91,14.91,0,0,1-4.17,3.9l-.19.13,1.4,1.73.16-.12a16.49,16.49,0,0,0,5.48-6.15,16.77,16.77,0,0,0,1-6.48,16.52,16.52,0,0,0-1-6.39C170.93,37.11,169.83,36.21,168.43,36.21Z"/><path class="cls-3" d="M143.29,42.32A7.38,7.38,0,0,0,138.67,44l.66-1.41c.49-1,.89-1.81,1.18-2.29l.1-.15-1.16-1-1.37.41V35.27H136V40a20.06,20.06,0,0,1-3.86.39c-.53,0-1.08,0-1.62-.06l-.27,0,.37,2.2h.17A18.35,18.35,0,0,0,136,42V44c-.55,2.42-2.31,5.51-5.24,9.18l-.1.12,1.53,2.3.16-.32A47.3,47.3,0,0,1,136,49.39v9.19h2.17V47.15a6.47,6.47,0,0,1,5.06-2.85,3.52,3.52,0,0,1,2.89,1.39,5.75,5.75,0,0,1,1.16,3.76,6,6,0,0,1-1.5,3.79,9.43,9.43,0,0,1-2.95,2.42l-.21.11,1.08,1.61.16-.09c3.65-2,5.5-4.72,5.5-8.08a7.35,7.35,0,0,0-1.64-4.84A5.47,5.47,0,0,0,143.29,42.32Z"/><path class="cls-3" d="M193.19,37.22A9.53,9.53,0,0,0,187,39.59a9.69,9.69,0,0,0-3.47,7.81,8.6,8.6,0,0,0,.84,4,2.59,2.59,0,0,0,2.25,1.67,3.7,3.7,0,0,0,2.49-.88c3-2.54,5-6.31,6.07-11.2l0-.08,0-.07a3.59,3.59,0,0,0-1.62-1.41l-.24-.11-.05.26c-.91,5-2.65,8.66-5.19,10.83-.67.57-1.3.62-1.69.11a5.22,5.22,0,0,1-.72-3.09,8.26,8.26,0,0,1,2.57-6.27,7.4,7.4,0,0,1,10.22-.11,6.7,6.7,0,0,1,2,4.95,8.07,8.07,0,0,1-1.6,5.44c-1.09,1.24-2.93,2.07-5.45,2.47l-.3,0,.14.26a2.44,2.44,0,0,1,.26.75l.21,1.07.2,0c3-.52,5.23-1.59,6.61-3.19A10.15,10.15,0,0,0,202.56,46a8.37,8.37,0,0,0-2.51-6.25A9.44,9.44,0,0,0,193.19,37.22Z"/><path class="cls-3" d="M214.13,55.08a5.4,5.4,0,0,0-2.54-2.5,12.65,12.65,0,0,0-3.44-1.15l-.17,0-.27.65.17.09A8.31,8.31,0,0,1,210,53.7a12.4,12.4,0,0,1,1.81,2.36,1.84,1.84,0,0,0,1.54,1.08.87.87,0,0,0,.72-.42,1.61,1.61,0,0,0,.26-.9A1.7,1.7,0,0,0,214.13,55.08Z"/><path class="cls-3" d="M75,89.66a12,12,0,0,1-.16-1.48v-.34l-.34,0A44,44,0,0,1,67,87.8c-1.85-.18-2.74-1-2.74-2.32a4.2,4.2,0,0,1,2.21-3.73,41.11,41.11,0,0,1,8-3.06l.38-.12-.2-.34a10.09,10.09,0,0,1-.7-1.5l-.11-.29-.29.1c-1.88.66-3.69,1.33-5.37,2A58.72,58.72,0,0,1,68,72v-.25l-.24-.06-1.67-.45-.4-.11v.41c0,2.89.12,5.56.36,7.94C63.3,81,61.9,83,61.9,85.48a4,4,0,0,0,1.43,3.22A6.55,6.55,0,0,0,67.12,90c1.25.07,2.59.11,4,.11,1.15,0,2.35,0,3.59-.08H75Z"/><path class="cls-3" d="M153.8,89.66a12,12,0,0,1-.16-1.48v-.34l-.33,0a44.14,44.14,0,0,1-7.49-.06c-1.85-.18-2.74-1-2.74-2.32a4.2,4.2,0,0,1,2.21-3.73,41.11,41.11,0,0,1,8-3.06l.38-.12-.2-.34a10.09,10.09,0,0,1-.7-1.5l-.11-.29-.29.1c-1.88.66-3.69,1.33-5.37,2a58.65,58.65,0,0,1-.18-6.5v-.25l-.24-.06-1.67-.45-.4-.11v.41c0,2.89.12,5.56.36,7.94-2.78,1.52-4.18,3.52-4.18,6a4,4,0,0,0,1.43,3.22A6.55,6.55,0,0,0,145.94,90c1.25.07,2.59.11,4,.11,1.15,0,2.35,0,3.59-.08h.35Z"/><path class="cls-3" d="M193.71,72.18v15h2.22V86.07h10.93v1.08h2.21v-15Zm13.2,2.13V84h-11V74.31Z"/><path class="cls-3" d="M223.58,77.8l1.58-1.47-.11-.21a9.36,9.36,0,0,0-3.29-3.69l-.22-.14-1.39,1.56.29.2a9.86,9.86,0,0,1,2.95,3.39Z"/><path class="cls-3" d="M235.88,71.37l-.11.43a26.66,26.66,0,0,1-4.66,9.64,21.08,21.08,0,0,1-7.62,6.36l-.43.2,1.77,1.6.2-.1a25.76,25.76,0,0,0,7.78-6.28,32.09,32.09,0,0,0,5.33-10.11l.08-.23Z"/><path class="cls-3" d="M229.13,74.94l.17.41,1.61-1.47-.1-.21a7.7,7.7,0,0,0-3.17-3.48l-.22-.12L226,71.66l.32.2A6.64,6.64,0,0,1,229.13,74.94Z"/><path class="cls-3" d="M185,66.76a2.85,2.85,0,0,0-4.86,2,2.7,2.7,0,0,0,.83,2,2.91,2.91,0,0,0,4,0,2.7,2.7,0,0,0,.83-2A2.76,2.76,0,0,0,185,66.76Zm-.68,2a1.24,1.24,0,0,1-.37,1,1.31,1.31,0,0,1-1,.36,1.34,1.34,0,0,1-1-.36,1.45,1.45,0,0,1,0-1.92,1.29,1.29,0,0,1,1-.36,1.26,1.26,0,0,1,1.34,1.33Z"/><path class="cls-3" d="M165.77,71v2.32H179.1a20.34,20.34,0,0,1-3.62,8.77,21.55,21.55,0,0,1-7.59,5.48l-.37.18,1.58,1.78.22-.1a23.62,23.62,0,0,0,8.29-6.27c1.88-2.43,3.26-5.9,4.12-10.3l0-.18L179.88,71Z"/><path class="cls-3" d="M292.77,75.87l-.2.49A20,20,0,0,1,285.71,85v-15h-2.4v17l2,1.13.16-.1a23.65,23.65,0,0,0,8.78-9.89l.09-.18Z"/><path class="cls-3" d="M279,73.43c0,4.34-.29,7.35-.86,8.94a10.63,10.63,0,0,1-3.78,4.47l-.29.21,1.65,1.69.22-.18a13.38,13.38,0,0,0,4.35-5.07c.75-1.83,1.14-4.9,1.14-9.13V71H279Z"/><path class="cls-3" d="M253.05,20a3.38,3.38,0,0,0-2.43-1,3.25,3.25,0,0,0-2.4,1,3.44,3.44,0,0,0,0,4.82,3.2,3.2,0,0,0,2.39,1,3.43,3.43,0,0,0,3.44-3.43A3.24,3.24,0,0,0,253.05,20Zm-.72,4.12a2.3,2.3,0,0,1-1.68.71,2.44,2.44,0,0,1-2.44-2.44,2.29,2.29,0,0,1,.73-1.7,2.37,2.37,0,0,1,1.71-.71,2.27,2.27,0,0,1,1.68.72,2.34,2.34,0,0,1,.71,1.69A2.39,2.39,0,0,1,252.33,24.11Z"/><path class="cls-3" d="M250.62,26.05A3.48,3.48,0,0,1,248.06,25a3.66,3.66,0,0,1,0-5.14,3.48,3.48,0,0,1,2.57-1.07,3.57,3.57,0,0,1,2.59,1.07,3.48,3.48,0,0,1,1.08,2.55,3.67,3.67,0,0,1-3.67,3.67Zm0-6.82a3,3,0,0,0-2.24.92,3.11,3.11,0,0,0-.91,2.26,3,3,0,0,0,.92,2.24,3,3,0,0,0,2.23.93,3.18,3.18,0,0,0,3.2-3.2,3,3,0,0,0-.94-2.22A3,3,0,0,0,250.62,19.23Zm0,5.83A2.7,2.7,0,0,1,248,22.38a2.5,2.5,0,0,1,.8-1.86,2.56,2.56,0,0,1,1.87-.78,2.51,2.51,0,0,1,1.85.79,2.56,2.56,0,0,1,.77,1.85,2.64,2.64,0,0,1-.77,1.89A2.54,2.54,0,0,1,250.65,25.06Zm0-4.86a2.1,2.1,0,0,0-1.55.65,2.05,2.05,0,0,0-.66,1.53,2.15,2.15,0,0,0,.65,1.56,2.11,2.11,0,0,0,1.56.65,2,2,0,0,0,1.52-.65,2.14,2.14,0,0,0,.64-1.56,2.1,2.1,0,0,0-.64-1.53A2,2,0,0,0,250.65,20.2Z"/><path class="cls-3" d="M53.33,92.92A42.12,42.12,0,0,0,45.48,90l1.24-1.83a44.32,44.32,0,0,1,7.83,3ZM31,90.76a26.82,26.82,0,0,0,7.36-2.49l1.72,1.57A31.81,31.81,0,0,1,32,92.78Zm-26.81.71A19.07,19.07,0,0,0,8.63,84l0-.18h-4V81.77a36.7,36.7,0,0,0,3.52-4.64l.14-.22h-4v-2h6.27v2.14a45.59,45.59,0,0,1-3.11,4.57l-.18.23h3.45V84a23.91,23.91,0,0,1-1.51,3.77l0,.08.06.08A6.65,6.65,0,0,0,13,90.13a62.81,62.81,0,0,0,9.76.46c1.76,0,3.37,0,4.79-.08l-.63,2c-1.22,0-2.5,0-3.83,0A61.66,61.66,0,0,1,12.9,92a8.65,8.65,0,0,1-4.46-2.36l-.13-.12-.09.14a25,25,0,0,1-2.5,3.12ZM12.71,89V76.29h4l0-.07c.17-.28.43-.78.8-1.49l.1-.2H11.56v-1.9h16v1.9H20l0,.08c-.36.76-.6,1.26-.73,1.47l-.13.21h7.08V89Zm2.11-1.74h9.29v-2H14.82Zm0-3.67h9.29V81.67H14.82Zm0-3.64h9.29V78H14.82Zm16.51,7.51V85.66h2.42V70h18V85.66h2.58v1.81ZM36,85.66H49.57V83.34H36Zm0-4.08H49.57V79.44H36Zm0-3.85H49.57v-2.1H36Zm0-3.84H49.57v-2H36Zm-27,0A23.73,23.73,0,0,0,5,70.67l1.53-1.41a20.8,20.8,0,0,1,3.88,3.25Zm12-2.84a20.92,20.92,0,0,0,2.39-1.74l2,.92a18.47,18.47,0,0,1-2.47,1.9Zm-5,1.07a28.63,28.63,0,0,0-2.58-1.75l1.83-1.14A19.8,19.8,0,0,1,17.72,71Z"/><path class="cls-3" d="M92,79.58c.26-.19.37-.34.34-.46s-.19-.19-.49-.23h-2v2.62H85.5v1.76h4.27a14.06,14.06,0,0,1-5.09,5.49l0,0,1.28,1.82,0,0,0,0a14.93,14.93,0,0,0,3.82-3.76V93H92V86.67a22.68,22.68,0,0,1,3.18,2.78l0,0,1.18-1.83,0,0,0,0a20,20,0,0,0-4.39-3v-1.3h4.51V81.51H92Z"/><path class="cls-3" d="M104.47,90V86h3.15V84.24h-3.15V81h3.15V79.2h-3.15v-3h3.78V74.17h-3.76l1.23-3.39c.38-.08.57-.18.59-.31s-.11-.25-.4-.39l-2-.74h0l-1.26,4.84H100c.48-1.45.86-2.73,1.13-3.82.34-.21.48-.37.45-.5s-.14-.16-.37-.19l-1.78-.32h0v0a31.17,31.17,0,0,1-2.1,7l.09-1.07-1.56-.44-.11,1.42c0,.25-.15.37-.48.37h-.63a.44.44,0,0,1-.35-.1.3.3,0,0,1,0-.27L94.82,72H91V69.51c.25-.19.36-.34.33-.46s-.18-.2-.48-.24H89.17V72H85.92v1.77h3.14c-.16,2.11-1.56,3.64-4.17,4.53l0,0L86,80l0,0h0c3.13-1.46,4.76-3.58,4.85-6.29h1.9l-.41,3a1.49,1.49,0,0,0,.25,1.22,1.47,1.47,0,0,0,1.16.4h1.78a1.09,1.09,0,0,0,.65-.24,6.14,6.14,0,0,1-1.72,1.63l-.05,0L95.9,81l0,0,0,0a9,9,0,0,0,1.93-2.19V93h1.87v-.94h9.13V90ZM102.6,76.24v3H99.75v-3Zm0,4.73v3.27H99.75V81Zm0,5v4H99.75V86Z"/><path class="cls-3" d="M125.82,76.21h7a2.43,2.43,0,0,0,1.81-.71,8,8,0,0,0,1.4-2.84l.05-.15-1.94-.83,0,.19c-.4,1.66-.92,2.5-1.56,2.5h-6.74c-.46,0-.66-.17-.66-.58v-1a25.37,25.37,0,0,0,9.12-2.58l.17-.1-1.19-1.56-.13.08a20.17,20.17,0,0,1-8,2.27V68.47h-2v5.11C123.08,75.33,124,76.21,125.82,76.21Z"/><path class="cls-3" d="M136.08,90.75a27.24,27.24,0,0,0-9.71-2.24h-.11l-.94,1.77.25,0a25.26,25.26,0,0,1,9.35,2.13l.12.06,1.23-1.64Z"/><path class="cls-3" d="M113.08,75.28h0a26.1,26.1,0,0,0,3.47-1.73v3.23h2V72.29a15.75,15.75,0,0,0,2.75-2.58l.11-.13L120,68.4l-.11.12a20.29,20.29,0,0,1-7.93,5.09l-.21.08L113,75.33Z"/><path class="cls-3" d="M115.42,88.28h17v-11h-17Zm14.94-3.07v1.17H117.45V85.21Zm0-3v1.16H117.45V82.21Zm0-3v1.15H117.45V79.19Z"/><path class="cls-3" d="M120.79,88.35a27.24,27.24,0,0,1-9,2.22l-.29,0,1.33,1.83.1,0c4.39-.68,7.49-1.56,9.23-2.61l.19-.11-1.47-1.38Z"/><rect class="cls-3" x="186.39" y="12.81" width="26.27" height="2.13"/><rect class="cls-3" x="244.68" y="78.84" width="23.89" height="2.13"/><path class="cls-2" d="M15.24,120.72l-.62.36-6.24,3.6-.62.36A3.63,3.63,0,0,0,6.44,130l2.43,4.2c1,1.72,3.54,6.14,4.54,7.86l.67,1.17c1,1.71,2.46,1.85,4.4,2.26l3.4.74H22a1.34,1.34,0,0,1,1.07.67.36.36,0,0,1,0,.09h0l11.62,20.14,3.45-2L26.47,144.83a1.38,1.38,0,0,1-.06-1.07c0-.08.07-.15.1-.24l1.06-3.31c.61-1.88,1.23-3.22.24-4.94l-.68-1.17-4.53-7.85L20.17,122A3.62,3.62,0,0,0,15.24,120.72Zm1.09,19a.55.55,0,0,1-.19.74.56.56,0,0,1-.74-.2L9,129.15a.54.54,0,0,1,.2-.74.55.55,0,0,1,.73.2Zm-2.17-14.51a.54.54,0,0,1,.19-.73.54.54,0,0,1,.74.2l6.82,11.82a.54.54,0,0,1-.19.73A.54.54,0,0,1,21,137Zm-2.79,1.61a.54.54,0,1,1,.93-.53l6.82,11.82a.53.53,0,0,1-.19.73.54.54,0,0,1-.74-.2ZM24.7,134.9a.53.53,0,1,1-.92.53l-6.42-11.12a.54.54,0,1,1,.93-.53Z"/><path class="cls-2" d="M33.81,112.53a9,9,0,0,0-6.69,10.77c0,.16.09.35.16.56A8,8,0,0,0,27.7,125c2.24,5.6,10,20.09,13.63,26.87l3.59,15.58,3-.69-3.59-15.57c.32-7.71.92-24.11.47-30.11a8.57,8.57,0,0,0-.13-1.25c0-.22-.07-.41-.1-.57A9,9,0,0,0,33.81,112.53Zm-.21,1.06,7.88,34.17h0c-2.75-7.68-6.84-19.27-8.31-24.11-.12-.37-.22-.74-.32-1.13-.06-.19-.1-.37-.13-.51C31.7,117.75,32.34,114.45,33.6,113.59Zm8.76,34-7.89-34.17c1.5.22,3.52,2.9,4.51,7.17,0,.15.07.32.11.53.08.39.15.77.2,1.16.81,5,2.2,17.19,3.1,25.3ZM31.85,114.62a14.16,14.16,0,0,0,0,7.6l.14.54c.1.4.22.8.34,1.17,1.29,4.27,4.62,13.77,7.28,21.22-3.29-7.32-7.43-16.7-8.93-20.94-.12-.32-.24-.68-.36-1.11-.06-.19-.1-.35-.14-.5C29.4,119.4,30.15,116.32,31.85,114.62Zm8.33,7.49q-.09-.58-.21-1.2c0-.21-.08-.39-.12-.55a14.09,14.09,0,0,0-3.36-6.81c2.27.78,4.29,3.22,5,6.43,0,.14.07.31.1.51.08.43.13.81.16,1.16.51,4.46.91,14.71,1.16,22.73C42.06,136.51,40.89,126.52,40.18,122.11Zm-12,1.48c-.06-.19-.11-.35-.14-.49a8.12,8.12,0,0,1,2-7.39,10.46,10.46,0,0,0-.72,7.09c0,.16.09.35.15.55a10.79,10.79,0,0,0,.38,1.17c1.36,3.84,4.87,11.88,8,18.8-3.61-6.83-7.71-14.82-9.23-18.65A9.26,9.26,0,0,1,28.13,123.59ZM43.76,120a7.26,7.26,0,0,1,.12,1.16c.31,4.09.12,13.07-.12,20.79-.26-7.58-.63-16.33-1.09-20.37a10.58,10.58,0,0,0-.17-1.23,5.28,5.28,0,0,0-.11-.57,10.46,10.46,0,0,0-3.75-6.06,8.12,8.12,0,0,1,5,5.77A3,3,0,0,1,43.76,120Z"/><path class="cls-5" d="M266.81,152.5h0v0c4.79-.5,9.11-4.83,10.83-13.37,2-10.2-.41-22.54-6.24-23.71s-12.86,9.26-14.91,19.47c-1.71,8.54.61,14.19,4.83,16.5v0h0a.74.74,0,0,1,.58.87h0l-13.87,62.2h0a3.54,3.54,0,1,0,6.94,1.39s0,0,0,0l10.93-62.76A.74.74,0,0,1,266.81,152.5Z"/><path class="cls-4" d="M266.81,152.5h0v0c4.79-.5,9.11-4.83,10.83-13.37,2-10.2-.41-22.54-6.24-23.71s-12.86,9.26-14.91,19.47c-1.71,8.54.61,14.19,4.83,16.5v0h0a.74.74,0,0,1,.58.87h0l-13.87,62.2h0a3.54,3.54,0,1,0,6.94,1.39s0,0,0,0l10.93-62.76A.74.74,0,0,1,266.81,152.5Z"/><path class="cls-6" d="M264.25,183.27a33.53,33.53,0,0,1,14.63-6.7c-1.2.63-9.53,3-14.39,7.44Z"/><path class="cls-6" d="M278.05,176.71c1.78-1.23,2.91-3.17,4.65-4.47a21.13,21.13,0,0,1,6.38-3.33c-.45,1.4-.25,2.14-4.41,4.52s-5.59,3.64-6.76,3.46"/><path class="cls-7" d="M279.59,176l.81-.59,1.66-1.18c1.66-1.15,2-1.55,2.13-1.95a17.76,17.76,0,0,0-2.93,2,10.77,10.77,0,0,0-1.16,1.18Z"/><path class="cls-6" d="M273.13,178.26s-.08-3.6,1.53-5.59,4.22-4.92,4.19-5.77c.31,2,.26,4.45-2.55,7.54A19.58,19.58,0,0,0,273.13,178.26Z"/><path class="cls-7" d="M273.68,176.5a3.43,3.43,0,0,1,.62-1.47l.58-.7c.44-.53.8-1,1.08-1.34a4.9,4.9,0,0,1-1.35,2.52C274.22,175.9,273.92,176.23,273.68,176.5Z"/><path class="cls-6" d="M280.32,176.61s5.32-2.66,13.12.36c-1.56.76-3.48,1.65-5.6,1S282.07,176.39,280.32,176.61Z"/><path class="cls-7" d="M290,177a11.21,11.21,0,0,1-3.18,0c-1.44-.24-3.08-.51-4.53-.66a34.73,34.73,0,0,1,8.72.51C290.64,176.87,290.3,176.92,290,177Z"/><path class="cls-8" d="M284.87,186.13c-1.62,1.37-4.46.68-6.33-1.54s-2.07-5.12-.45-6.49,4.45-.68,6.32,1.54S286.49,184.76,284.87,186.13Z"/><path class="cls-9" d="M285.93,183.08a1.73,1.73,0,0,0-1.17,0,1.63,1.63,0,0,0-1.07,2,1.55,1.55,0,0,0,1.22,1A3.46,3.46,0,0,0,285.93,183.08Z"/><path class="cls-10" d="M279.78,180.7c.3-.06.62-.18.88-.23a2.87,2.87,0,0,1,1.59,0c.28.1,1.91.93,1.24,0a4.44,4.44,0,0,0-2.6-1.8,3,3,0,0,0-1.76.32.9.9,0,0,0,0,1.68A1.12,1.12,0,0,0,279.78,180.7Z"/><path class="cls-8" d="M272.64,190.46c-2.12-.12-3.71-2.56-3.55-5.46s2-5.15,4.12-5,3.7,2.56,3.55,5.46S274.76,190.57,272.64,190.46Z"/><path class="cls-9" d="M275.51,189a1.64,1.64,0,0,0-.83-.83,1.61,1.61,0,0,0-2.16.73,1.55,1.55,0,0,0,.18,1.59A3.49,3.49,0,0,0,275.51,189Z"/><path class="cls-10" d="M272.65,183c.26.16.58.29.81.43a2.83,2.83,0,0,1,1.16,1.09c.14.26.76,2,.89.86a4.45,4.45,0,0,0-.67-3.09,2.91,2.91,0,0,0-1.5-1c-.73-.17-1.53.4-1.13,1.24A1.16,1.16,0,0,0,272.65,183Z"/><path class="cls-11" d="M93.8,173.65V169a3.68,3.68,0,0,0-.73-2.47,2.64,2.64,0,0,0-2.12-.85,3.13,3.13,0,0,0-2.84,1.45h0v-1.29H86.42v7.82h1.67v-4.46a1.7,1.7,0,0,1,.59-1.34,3.16,3.16,0,0,1,1.08-.59,3.35,3.35,0,0,1,.92-.11,1.27,1.27,0,0,1,1,.52,2.46,2.46,0,0,1,.41,1.56v4.42ZM78,168.94a2.36,2.36,0,0,1,.78-1.46,2.28,2.28,0,0,1,1.52-.54,2,2,0,0,1,1.47.53,2,2,0,0,1,.52,1.47Zm5.92,1.25v-.68a4,4,0,0,0-.93-2.84,3.46,3.46,0,0,0-2.68-1,3.89,3.89,0,0,0-4,4.11,4,4,0,0,0,1.06,3,3.9,3.9,0,0,0,2.93,1.07,6.13,6.13,0,0,0,3-.7v-1.38a4.6,4.6,0,0,1-2.58.78,3,3,0,0,1-1.95-.58,2.4,2.4,0,0,1-.75-1.75Zm-10.05,3.46v-4.81a3.44,3.44,0,0,0-.73-2.36,2.69,2.69,0,0,0-2.12-.81,3.17,3.17,0,0,0-2.83,1.45h0v-5H66.5v11.54h1.67v-4.43A2.12,2.12,0,0,1,70.35,167c1.24,0,1.86.72,1.86,2.17v4.47Zm-10.09-1.81a3.7,3.7,0,0,1-2,.63,2.84,2.84,0,0,1-2-.72,2.59,2.59,0,0,1-.76-2,2.62,2.62,0,0,1,.8-2,2.9,2.9,0,0,1,2.09-.77,3.48,3.48,0,0,1,1.95.61V166a5.06,5.06,0,0,0-2-.37,4.59,4.59,0,0,0-3.28,1.15,4,4,0,0,0-1.24,3.1,3.69,3.69,0,0,0,1.16,2.8,4.07,4.07,0,0,0,3,1.1,5,5,0,0,0,2.4-.52Zm-9.14.4a1.78,1.78,0,0,1-.88.23,1.25,1.25,0,0,1-.94-.3,1.47,1.47,0,0,1-.29-1v-4h2.09v-1.32H52.54v-2.31l-.34.1-1.3.36v1.85H49.42v1.32H50.9v4.26a2.1,2.1,0,0,0,2.33,2.41,3.63,3.63,0,0,0,1.42-.26Zm-9-6.41H42.08v1.28H44v5.26H42.08v1.28h5.46v-1.28H45.61Zm-.09-2a.91.91,0,0,0,.29-.68.85.85,0,0,0-.29-.66,1.1,1.1,0,0,0-1.42,0,.85.85,0,0,0-.29.66,1,1,0,0,0,.28.68,1,1,0,0,0,.72.28A1,1,0,0,0,45.52,163.85Zm-5.91,9.8-5-5.69,4.71-5.25h-2.1l-2.62,3.09-.68.8c-.45.52-.71.83-.77.91l-.24.34h0v-5.14H31.14v10.94h1.69v-5.37h0a2.28,2.28,0,0,0,.33.46l4.2,4.91Z"/><path class="cls-11" d="M87.55,185.37a3.47,3.47,0,0,1,0,4.06,2.5,2.5,0,0,1-1.92.69,2.56,2.56,0,0,1-1.92-.72,2.69,2.69,0,0,1-.71-2,2.82,2.82,0,0,1,.71-2,2.59,2.59,0,0,1,1.94-.73A2.43,2.43,0,0,1,87.55,185.37Zm1.17,5a4,4,0,0,0,1.17-3,3.91,3.91,0,0,0-1.1-2.94,4.18,4.18,0,0,0-3.05-1.08,4.53,4.53,0,0,0-3.22,1.1,3.9,3.9,0,0,0-1.2,3,3.86,3.86,0,0,0,1.15,2.92,4.94,4.94,0,0,0,6.25,0Zm-11.83-6.86H73.36v1.27h1.93V190H73.36v1.27h5.46V190H76.89Zm-.09-2a.91.91,0,0,0,.29-.68.86.86,0,0,0-.29-.66,1.1,1.1,0,0,0-1.42,0,.85.85,0,0,0-.28.66.94.94,0,0,0,.27.68,1,1,0,0,0,.72.28A.93.93,0,0,0,76.8,181.49Zm-8.75,6.18a2.43,2.43,0,0,1-.66,1.76,2.28,2.28,0,0,1-1.72.69,2.21,2.21,0,0,1-1.72-.7,2.69,2.69,0,0,1-.64-1.91,3.09,3.09,0,0,1,.66-2.1,2.28,2.28,0,0,1,1.82-.76,2.33,2.33,0,0,1,1.63.59,2,2,0,0,1,.63,1.46Zm1.65,3.62V179.75H68.05v4.77h0a2.86,2.86,0,0,0-2.55-1.21,3.57,3.57,0,0,0-2.8,1.17,4.41,4.41,0,0,0-1.06,3.09,4,4,0,0,0,1,2.86A3.63,3.63,0,0,0,68,190h0v1.26Zm-11,0v-7.81H57.06V188a2.11,2.11,0,0,1-.58,1.57,2,2,0,0,1-1.53.59c-1.29,0-1.93-.72-1.93-2.16v-4.48H51.35v4.69q0,3.3,3,3.3A2.92,2.92,0,0,0,57,190.06h0v1.23ZM48,189.88a1.79,1.79,0,0,1-.88.24,1.25,1.25,0,0,1-.94-.31,1.47,1.47,0,0,1-.29-1v-4H48v-1.31H45.93v-2.32l-.34.1-1.3.37v1.85H42.81v1.31h1.48v4.26c0,1.61.77,2.42,2.33,2.42A3.63,3.63,0,0,0,48,191.2Zm-10.79,1.59a3.87,3.87,0,0,0,2.38-.67,2,2,0,0,0,.88-1.71,1.91,1.91,0,0,0-.49-1.32,4.07,4.07,0,0,0-1.71-1,5.64,5.64,0,0,1-1.27-.62.82.82,0,0,1-.32-.67.76.76,0,0,1,.4-.66,2,2,0,0,1,1-.25,3.62,3.62,0,0,1,2,.54v-1.48a5.15,5.15,0,0,0-1.89-.34,3.72,3.72,0,0,0-2.27.65,2.14,2.14,0,0,0-.47,3,3.72,3.72,0,0,0,1.64,1,8,8,0,0,1,1.31.6.81.81,0,0,1,.45.72c0,.61-.52.92-1.56.92a3.78,3.78,0,0,1-1.15-.18,4.72,4.72,0,0,1-1.11-.54V191A5.7,5.7,0,0,0,37.25,191.47Z"/><path class="cls-2" d="M63.43,132.61h0l9.74-1.09a11.22,11.22,0,0,0-7.42-7.66c-5.84-1.91-12,1-13.85,6.54a10,10,0,0,0-.46,2.45L51.26,134Z"/><path class="cls-11" d="M275.21,143.14a42.73,42.73,0,0,0,2-6.89,35.9,35.9,0,0,0-.57-12.19,19.44,19.44,0,0,0-1.22-3.58,29.33,29.33,0,0,1-.23,9c-.77,4.38-4.11,9.77-8.36,10.79-5,1.32-7.06,1.75-7.45,4.67s3.34,5.69,5.66,6.27S271.87,151.31,275.21,143.14Z"/><path class="cls-2" d="M53,133.65l0-.12-1.69.46,0,.12c0,.13,3.65,13.82-.49,22.61l0,.12,1.58.74.06-.11C56.79,148.11,53.14,134.24,53,133.65Z"/></g></g></svg>