<svg xmlns="http://www.w3.org/2000/svg" viewBox="0 0 113.33 17.14"><defs><style>.cls-1{fill:#fff;}</style></defs><g id="Layer_2" data-name="Layer 2"><g id="レイヤー_1" data-name="レイヤー 1"><path class="cls-1" d="M8.64,8.11A16.71,16.71,0,0,0,6.38,7c-.68-.27-1.2-.49-1.56-.67a2.65,2.65,0,0,1-.88-.71,1.73,1.73,0,0,1-.36-1.14A1.64,1.64,0,0,1,4.19,3.2,3,3,0,0,1,6.1,2.69a5,5,0,0,1,2,.41l.4.19a1.13,1.13,0,0,0,.39.12q.32,0,.72-.69a2.34,2.34,0,0,0,.41-1.11q0-.36-.51-.72A4.38,4.38,0,0,0,8,.24,9,9,0,0,0,5.9,0,7.25,7.25,0,0,0,3.12.53a4.59,4.59,0,0,0-2,1.59A4.41,4.41,0,0,0,.34,4.7,4.94,4.94,0,0,0,.82,7,4.06,4.06,0,0,0,2,8.46a9.84,9.84,0,0,0,1.85,1l.84.36a15.93,15.93,0,0,1,1.53.71,3.27,3.27,0,0,1,.93.74,1.64,1.64,0,0,1,.37,1.09,1.76,1.76,0,0,1-.73,1.55A3,3,0,0,1,5,14.45a5.32,5.32,0,0,1-1.68-.24,10.15,10.15,0,0,1-1.47-.63,1.73,1.73,0,0,0-.6-.26c-.21,0-.47.23-.79.68A2.18,2.18,0,0,0,0,15.14c0,.24.2.52.6.82a5.81,5.81,0,0,0,2,.84,11.27,11.27,0,0,0,2.86.34,5.84,5.84,0,0,0,3.84-1.26A4.59,4.59,0,0,0,10.8,12.1a4.43,4.43,0,0,0-.64-2.49A4.62,4.62,0,0,0,8.64,8.11Zm21.22,6.17H23.69V9.72h5.47a.54.54,0,0,0,.49-.24,1.44,1.44,0,0,0,.16-.79V8.06a1.46,1.46,0,0,0-.16-.79A.54.54,0,0,0,29.16,7H23.69V2.86h6.14a.53.53,0,0,0,.49-.24,1.48,1.48,0,0,0,.16-.8V1.2a1.44,1.44,0,0,0-.16-.79.53.53,0,0,0-.49-.24h-8.4a1,1,0,0,0-.67.2,1,1,0,0,0-.22.69v15a.93.93,0,0,0,.22.67.89.89,0,0,0,.67.22h8.43a.55.55,0,0,0,.49-.24,1.57,1.57,0,0,0,.15-.79v-.63a1.55,1.55,0,0,0-.15-.79A.55.55,0,0,0,29.86,14.28ZM42.55.1H42q-1.29,0-1.29.72v15.5q0,.72,1.29.72h.6c.85,0,1.27-.24,1.27-.72V.82C43.82.34,43.4.1,42.55.1ZM65.09.17H53.78a.55.55,0,0,0-.49.24,1.55,1.55,0,0,0-.15.79v.62a1.59,1.59,0,0,0,.15.8.55.55,0,0,0,.49.24h4.08V16.32c0,.46.43.7,1.28.7h.62c.85,0,1.27-.24,1.27-.7V2.86h4.06a.54.54,0,0,0,.49-.24,1.57,1.57,0,0,0,.16-.8V1.2a1.53,1.53,0,0,0-.16-.79A.54.54,0,0,0,65.09.17ZM82,0a7.16,7.16,0,0,0-5.64,2.2c-1.31,1.46-2,3.58-2,6.34s.66,4.92,2,6.39A7.16,7.16,0,0,0,82,17.14a7.14,7.14,0,0,0,5.63-2.21q2-2.2,2-6.39t-2-6.36A7.19,7.19,0,0,0,82,0Zm3.23,12.94a4.23,4.23,0,0,1-6.48,0,7.31,7.31,0,0,1-1.12-4.4,7.14,7.14,0,0,1,1.12-4.36,4.28,4.28,0,0,1,6.49,0,7.28,7.28,0,0,1,1.1,4.36A7.38,7.38,0,0,1,85.24,12.94ZM112.06.12h-.58c-.85,0-1.27.23-1.27.7V11.3a2.82,2.82,0,0,1-1,2.26,4.4,4.4,0,0,1-5.29,0,2.82,2.82,0,0,1-1-2.27V.82c0-.47-.43-.7-1.27-.7H101c-.85,0-1.27.23-1.27.7v10.6a5.23,5.23,0,0,0,1.77,4.22,9.22,9.22,0,0,0,10.08,0,5.24,5.24,0,0,0,1.78-4.22V.82C113.33.35,112.9.12,112.06.12Z"/></g></g></svg>