<svg xmlns="http://www.w3.org/2000/svg" viewBox="0 0 43.94 43.94"><defs><style>.cls-1{fill:#fff;}</style></defs><g id="Layer_2" data-name="Layer 2"><g id="LINE_LOGO" data-name="LINE LOGO"><path class="cls-1" d="M34.42,0H9.52A9.52,9.52,0,0,0,0,9.52v24.9a9.52,9.52,0,0,0,9.52,9.52h24.9a9.52,9.52,0,0,0,9.52-9.52V9.52A9.52,9.52,0,0,0,34.42,0Zm0,28c-3.36,3.86-10.86,8.57-12.57,9.29s-1.46-.46-1.39-.87l.23-1.37a3.19,3.19,0,0,0,0-1.44c-.18-.45-.89-.68-1.41-.79C11.59,31.83,5.9,26.46,5.9,20c0-7.16,7.18-13,16-13s16,5.82,16,13a11.57,11.57,0,0,1-3.43,8Z"/><rect class="cls-1" x="17.22" y="16.58" width="1.75" height="7.59" rx="0.31"/><path class="cls-1" d="M26.37,16.58H25.25a.31.31,0,0,0-.31.31V21l-3.2-4.31,0,0h0l0,0H20.36a.31.31,0,0,0-.31.31v7a.31.31,0,0,0,.31.31h1.13a.31.31,0,0,0,.31-.31V19.72L25,24l.07.08h1.3a.31.31,0,0,0,.31-.31v-7A.31.31,0,0,0,26.37,16.58Z"/><path class="cls-1" d="M15.94,22.43h-3V16.89a.31.31,0,0,0-.31-.31H11.46a.31.31,0,0,0-.31.31v7h0a.29.29,0,0,0,.09.22h0a.3.3,0,0,0,.21.08h4.48a.31.31,0,0,0,.32-.31V22.74A.31.31,0,0,0,15.94,22.43Z"/><path class="cls-1" d="M32.57,16.58H28.09a.29.29,0,0,0-.22.09h0a.3.3,0,0,0-.08.21h0v7h0a.33.33,0,0,0,.08.22h0a.33.33,0,0,0,.22.08h4.48a.31.31,0,0,0,.31-.31V22.74a.31.31,0,0,0-.31-.31H29.52V21.25h3.05a.31.31,0,0,0,.31-.31V19.81a.31.31,0,0,0-.31-.31H29.52V18.32h3.05a.31.31,0,0,0,.31-.31V16.89A.31.31,0,0,0,32.57,16.58Z"/></g></g></svg>