<svg xmlns="http://www.w3.org/2000/svg" viewBox="0 0 16.62 16.62"><defs><style>.cls-1{fill:#21201f;}</style></defs><g id="Layer_2" data-name="Layer 2"><g id="Logo"><path class="cls-1" d="M8.31,1.5c2.22,0,2.48,0,3.36.05a4.52,4.52,0,0,1,1.54.28,2.57,2.57,0,0,1,1,.62,2.65,2.65,0,0,1,.62,1A4.45,4.45,0,0,1,15.08,5c0,.88.05,1.14.05,3.36s0,2.48-.05,3.36a4.45,4.45,0,0,1-.29,1.54,2.72,2.72,0,0,1-1.58,1.58,4.45,4.45,0,0,1-1.54.29c-.88,0-1.14.05-3.36.05s-2.48,0-3.36-.05a4.45,4.45,0,0,1-1.54-.29,2.65,2.65,0,0,1-1-.62,2.57,2.57,0,0,1-.62-1,4.52,4.52,0,0,1-.28-1.54c0-.88-.05-1.14-.05-3.36s0-2.48.05-3.36a4.52,4.52,0,0,1,.28-1.54A2.72,2.72,0,0,1,3.41,1.83,4.52,4.52,0,0,1,5,1.55c.88,0,1.14-.05,3.36-.05m0-1.5C6.05,0,5.77,0,4.89.05a6,6,0,0,0-2,.39,3.9,3.9,0,0,0-1.47,1,3.9,3.9,0,0,0-1,1.47,6,6,0,0,0-.39,2c0,.88,0,1.16,0,3.42s0,2.54.05,3.43a6,6,0,0,0,.39,2,4,4,0,0,0,1,1.47,4,4,0,0,0,1.47,1,6.25,6.25,0,0,0,2,.38c.88,0,1.16.05,3.42.05s2.54,0,3.43-.05a6.3,6.3,0,0,0,2-.38,4.27,4.27,0,0,0,2.43-2.43,6.3,6.3,0,0,0,.38-2c0-.89.05-1.17.05-3.43s0-2.54-.05-3.42a6.25,6.25,0,0,0-.38-2,4,4,0,0,0-1-1.47,4,4,0,0,0-1.47-1,6,6,0,0,0-2-.39c-.89,0-1.17,0-3.43,0Z"/><path class="cls-1" d="M8.31,4a4.27,4.27,0,1,0,4.27,4.27A4.27,4.27,0,0,0,8.31,4Zm0,7a2.77,2.77,0,1,1,2.77-2.77A2.77,2.77,0,0,1,8.31,11.08Z"/><circle class="cls-1" cx="12.75" cy="3.88" r="1"/></g></g></svg>